<svg width="1491" height="119" viewBox="0 0 1491 119" fill="none" xmlns="http://www.w3.org/2000/svg">
<path d="M73.5431 16.7515L18.5521 49.5569C0.269561 60.4634 -5.21716 84.4195 6.49603 102.196C13.408 112.686 25.1294 119 37.6919 119L1449.41 119C1490.26 114.142 1505.63 62.8738 1474.18 36.3473L1452.51 18.0687C1431.05 -0.0349808 1399.83 -0.617193 1377.71 16.6735L1372.44 20.7943C1349.05 39.0712 1316.48 39.9511 1292.14 22.9634L1282.49 16.225C1256.79 -1.71457 1223.21 -3.75268 1195.53 10.947L1167.5 25.832C1137.23 41.907 1100.94 41.8709 1070.7 25.7357L1045.48 12.276C1015.79 -3.56323 980.241 -3.90533 950.257 11.3597L921.441 26.0301C890.205 41.9327 853.025 40.8586 822.759 23.1792L812.638 17.2671C780.614 -1.43938 741.005 -1.48461 708.938 17.1487L702.761 20.7378C670.091 39.7219 629.648 39.2929 597.387 19.6201L595.717 18.6017C563.739 -0.899005 523.695 -1.50313 491.142 17.0241L483.063 21.6228C450.62 40.0878 410.71 39.4858 378.839 20.0504L375.545 18.0423C344.35 -0.98086 305.082 -0.736227 274.126 18.6741L272.123 19.9303C241.4 39.1946 202.267 38.7832 171.956 18.8775C142.266 -0.620352 104.047 -1.44597 73.5431 16.7515Z" fill="#121212"/>
</svg>
