<svg width="2312" height="185" viewBox="0 0 2312 185" fill="#aa1115" xmlns="http://www.w3.org/2000/svg">
<path d="M12 159L277.989 39.2203C310.104 24.7583 347.383 27.709 376.823 47.0434L404.242 65.0509C437.91 87.1618 481.377 87.6186 515.502 66.2204L541.627 49.8386C574.697 29.102 616.647 28.8406 649.973 49.1635L683.706 69.7351C715.685 89.2369 755.731 89.841 788.284 71.3128L832.711 46.0259C865.264 27.4977 905.309 28.1018 937.288 47.6036L973.048 69.4107C1005.31 89.0846 1045.75 89.5136 1078.42 70.5284L1120.38 46.1505C1152.44 27.5162 1192.05 27.5614 1224.08 46.2689L1269.79 72.97C1300.06 90.6504 1337.24 91.7246 1368.47 75.8211L1438.12 40.3612C1468.11 25.0953 1503.66 25.4374 1533.34 41.2776L1597.53 75.5267C1627.77 91.6628 1664.05 91.6989 1694.33 75.623L1750.98 45.5381C1785.12 27.4064 1826.54 29.9204 1858.24 52.0482L1866.44 57.7709C1903.54 83.6645 1953.18 82.3233 1988.83 54.4647L1990.66 53.034C2019.93 30.152 2059.26 24.8115 2093.58 39.0587L2301 125.172" stroke="white" stroke-opacity="0.33" stroke-width="57"/>
</svg>
